<?xml version="1.0" encoding="iso-8859-1"?>
<!-- Generator: Adobe Illustrator 16.0.0, SVG Export Plug-In . SVG Version: 6.00 Build 0)  -->
<!DOCTYPE svg PUBLIC "-//W3C//DTD SVG 1.1//EN" "http://www.w3.org/Graphics/SVG/1.1/DTD/svg11.dtd">
<svg xmlns="http://www.w3.org/2000/svg" xmlns:xlink="http://www.w3.org/1999/xlink" version="1.1" id="Capa_1" x="0px" y="0px" width="32px" height="32px" viewBox="0 0 485.205 485.205" style="enable-background:new 0 0 485.205 485.205;" xml:space="preserve">
<g>
	<path d="M122.847,171.349c-5.274-15.903,3.316-33.08,19.191-38.382l181.953-60.651c15.994-5.39,33.08,3.316,38.354,19.191   c5.297,15.875-3.286,33.053-19.163,38.354l-181.954,60.651c-3.199,1.066-6.429,1.566-9.598,1.566   C138.928,192.078,127.11,184.025,122.847,171.349z M151.631,101.161c3.169,0,6.398-0.532,9.598-1.599l121.3-40.424   c15.877-5.302,24.465-22.479,19.163-38.354c-5.303-15.871-22.389-24.577-38.35-19.187L142.038,42.05   c-15.875,5.273-24.465,22.451-19.191,38.354C127.11,93.108,138.928,101.161,151.631,101.161z M182.224,318.413h59.792   c0.592-3.552,0.77-7.225,0-10.958c-3.405-17.146-10.776-32.749-21.145-45.84l122.311-40.781   c15.877-5.297,24.46-22.477,19.163-38.349c-5.274-15.875-22.36-24.521-38.354-19.191l-181.953,60.651   c-13.033,4.354-21.531,16.939-20.673,30.684c0.859,13.712,10.839,25.142,24.344,27.839   C164.069,286.108,178.229,300.202,182.224,318.413z M333.587,248.286c-48.211,0-87.424,37.822-90.385,85.296h-61.244   c-16.764,0-30.327,13.562-30.327,30.321v30.327c0,16.764,13.567,30.326,30.327,30.326v30.327c0,16.759,13.562,30.321,30.324,30.321   h60.651c16.759,0,30.331-13.562,30.331-30.321v-30.327c16.76,0,30.322-13.562,30.322-30.326v-30.327   c0-16.372-12.998-29.491-29.226-30.089c2.66-14.038,14.417-24.875,29.226-24.875c16.76,0,30.322-13.562,30.322-30.322   C363.909,261.854,350.347,248.286,333.587,248.286z" fill="#FFFFFF"/>
</g>
<g>
</g>
<g>
</g>
<g>
</g>
<g>
</g>
<g>
</g>
<g>
</g>
<g>
</g>
<g>
</g>
<g>
</g>
<g>
</g>
<g>
</g>
<g>
</g>
<g>
</g>
<g>
</g>
<g>
</g>
</svg>
